<svg xmlns="http://www.w3.org/2000/svg" xmlns:xlink="http://www.w3.org/1999/xlink" width="1050" height="646.17"><rect width="1050" height="646.17" rx="5" ry="5" class="a"/><svg y="0%" x="0%"><circle cx="20" cy="20" r="6" fill="#ff5f58"/><circle cx="40" cy="20" r="6" fill="#ffbd2e"/><circle cx="60" cy="20" r="6" fill="#18c132"/></svg><svg height="586.17" viewBox="0 0 101 58.617" width="1010" x="15" xmlns="http://www.w3.org/2000/svg" xmlns:xlink="http://www.w3.org/1999/xlink" y="50"><style>@keyframes j{0%{transform:translateX(0)}.1%{transform:translateX(-101px)}22.8%{transform:translateX(-303px)}45.6%{transform:translateX(-404px)}47.5%{transform:translateX(-505px)}47.6%{transform:translateX(-606px)}47.7%{transform:translateX(-1010px)}52.4%{transform:translateX(-1212px)}55.7%{transform:translateX(-1313px)}60.3%{transform:translateX(-1515px)}64.5%{transform:translateX(-1717px)}66.9%{transform:translateX(-1919px)}70.9%{transform:translateX(-2121px)}74.7%{transform:translateX(-2222px)}78.9%{transform:translateX(-2323px)}82.8%{transform:translateX(-2525px)}87.2%{transform:translateX(-2929px)}87.3%{transform:translateX(-3030px)}to{transform:translateX(-3131px)}}.a{fill:#282d35}.f,.g{fill:#b9c0cb;white-space:pre}.g{fill:#a8cc8c}</style><g font-family="Monaco,Consolas,Menlo,'Bitstream Vera Sans Mono','Powerline Symbols',monospace" font-size="1.67"><defs><symbol id="1"><text y="1.67" class="f">$</text></symbol><symbol id="2"><text y="1.67" class="f">$</text><text x="2.004" y="1.67" class="f">php</text><text x="6.012" y="1.67" class="f">artisan</text><text x="14.028" y="1.67" class="f">users:process-unverified</text></symbol><symbol id="3"><text y="1.67" class="g">Querying</text><text x="9.018" y="1.67" class="g">records</text><text x="17.034" y="1.67" class="g">(no</text><text x="21.042" y="1.67" class="g">database</text><text x="30.06" y="1.67" class="g">transaction)…</text></symbol><symbol id="4"><text y="1.67" class="f">Processing</text><text x="11.022" y="1.67" class="g">100</text><text x="15.03" y="1.67" class="f">records…</text></symbol><symbol id="5"><text y="1.67" class="f">▓▓▓▓▓▓▓▓</text><text x="9.018" y="1.67" class="f">100/100</text><text x="17.034" y="1.67" class="f">(~&lt;</text><text x="21.042" y="1.67" class="f">1</text><text x="23.046" y="1.67" class="f">sec)</text><text x="28.056" y="1.67" class="f">Yvette</text><text x="35.07" y="1.67" class="f">Morissette</text><text x="46.092" y="1.67" class="f">IV</text><text x="49.098" y="1.67" class="f">&lt;brekke.ellie@yahoo.com&gt;</text><text x="74.148" y="1.67" class="f">→</text><text x="76.152" y="1.67" class="f">Queuing</text><text x="84.168" y="1.67" class="f">to</text><text x="87.174" y="1.67" class="f">be</text><text x="90.18" y="1.67" class="f">pruned…</text></symbol><symbol id="a"><path fill="transparent" d="M0 0h101v27H0z"/></symbol><symbol id="b"><path fill="#6f7683" d="M0 0h1.102v2.171H0z"/></symbol></defs><path class="a" d="M0 0h101v58.617H0z"/><g style="animation-duration:8.800961999999998s;animation-iteration-count:infinite;animation-name:j;animation-timing-function:steps(1,end)"><svg width="3232"><svg><use xlink:href="#a"/><use xlink:href="#b" x="-.004"/></svg><svg x="101"><use xlink:href="#a"/><use xlink:href="#b" x="1.996"/><use xlink:href="#1"/></svg><svg x="202"><use xlink:href="#a"/><use xlink:href="#b" x="3.996"/><text y="1.67" class="f">$</text><text x="2.004" y="1.67" class="f">ph</text></svg><svg x="303"><use xlink:href="#a"/><use xlink:href="#b" x="37.996"/><use xlink:href="#2"/></svg><svg x="404"><use xlink:href="#a"/><use xlink:href="#b" x="-.004" y="2.146"/><use xlink:href="#2"/></svg><svg x="505"><use xlink:href="#a"/><use xlink:href="#b" x="-.004" y="4.317"/><use xlink:href="#2"/></svg><svg x="606"><use xlink:href="#a"/><use xlink:href="#b" x="-.004" y="6.488"/><use xlink:href="#2"/><use xlink:href="#3" y="4.342"/></svg><svg x="707"><use xlink:href="#a"/><use xlink:href="#b" x="-.004" y="8.659"/><use xlink:href="#2"/><use xlink:href="#3" y="4.342"/></svg><svg x="808"><use xlink:href="#a"/><use xlink:href="#b" x="-.004" y="10.83"/><use xlink:href="#2"/><use xlink:href="#3" y="4.342"/><use xlink:href="#4" y="8.684"/></svg><svg x="909"><use xlink:href="#a"/><use xlink:href="#b" x="-.004" y="13.001"/><use xlink:href="#2"/><use xlink:href="#3" y="4.342"/><use xlink:href="#4" y="8.684"/></svg><svg x="1010"><use xlink:href="#a"/><use xlink:href="#b" x="47.996" y="13.001"/><use xlink:href="#2"/><use xlink:href="#3" y="4.342"/><use xlink:href="#4" y="8.684"/><text y="14.696" class="f">░░░░░░░░░░░░░░░░░░░░░░░░░░░░</text><text x="31.062" y="14.696" class="f">0/100</text><text x="37.074" y="14.696" class="f">(~&lt;</text><text x="41.082" y="14.696" class="f">1</text><text x="43.086" y="14.696" class="f">sec)</text></svg><svg x="1111"><use xlink:href="#a"/><use xlink:href="#b" x="-.004" y="13.001"/><use xlink:href="#2"/><use xlink:href="#3" y="4.342"/><use xlink:href="#4" y="8.684"/></svg><svg x="1212"><use xlink:href="#a"/><use xlink:href="#b" x="100.996" y="13.001"/><use xlink:href="#2"/><use xlink:href="#3" y="4.342"/><use xlink:href="#4" y="8.684"/><text y="14.696" class="f">▓░░░░░░░░░░░░</text><text x="15.03" y="14.696" class="f">10/100</text><text x="22.044" y="14.696" class="f">(~9</text><text x="26.052" y="14.696" class="f">secs)</text><text x="32.064" y="14.696" class="f">Xavier</text><text x="39.078" y="14.696" class="f">King</text><text x="44.088" y="14.696" class="f">Jr.</text><text x="48.096" y="14.696" class="f">&lt;kaylie.eichmann@hotmail.com&gt;</text><text x="78.156" y="14.696" class="f">→</text><text x="80.16" y="14.696" class="f">Queuing</text><text x="88.176" y="14.696" class="f">to</text><text x="91.182" y="14.696" class="f">be</text><text x="94.188" y="14.696" class="f">pruned…</text></svg><svg x="1313"><use xlink:href="#a"/><use xlink:href="#b" x="95.996" y="13.001"/><use xlink:href="#2"/><use xlink:href="#3" y="4.342"/><use xlink:href="#4" y="8.684"/><text y="14.696" class="f">▓▓░░░░░░░░░░░</text><text x="15.03" y="14.696" class="f">20/100</text><text x="22.044" y="14.696" class="f">(~4</text><text x="26.052" y="14.696" class="f">secs)</text><text x="32.064" y="14.696" class="f">Riley</text><text x="38.076" y="14.696" class="f">Cremin</text><text x="45.09" y="14.696" class="f">&lt;herzog.bennie@gutmann.com&gt;</text><text x="73.146" y="14.696" class="f">→</text><text x="75.15" y="14.696" class="f">Queuing</text><text x="83.166" y="14.696" class="f">to</text><text x="86.172" y="14.696" class="f">be</text><text x="89.178" y="14.696" class="f">pruned…</text></svg><svg x="1414"><use xlink:href="#a"/><use xlink:href="#b" x="-.004" y="13.001"/><use xlink:href="#2"/><use xlink:href="#3" y="4.342"/><use xlink:href="#4" y="8.684"/></svg><svg x="1515"><use xlink:href="#a"/><use xlink:href="#b" x="100.996" y="13.001"/><use xlink:href="#2"/><use xlink:href="#3" y="4.342"/><use xlink:href="#4" y="8.684"/><text y="14.696" class="f">▓▓░░░░░░░</text><text x="11.022" y="14.696" class="f">30/100</text><text x="18.036" y="14.696" class="f">(~2</text><text x="22.044" y="14.696" class="f">secs)</text><text x="28.056" y="14.696" class="f">Timmothy</text><text x="37.074" y="14.696" class="f">Williamson</text><text x="48.096" y="14.696" class="f">&lt;sandy.tremblay@kshlerin.com&gt;</text><text x="78.156" y="14.696" class="f">→</text><text x="80.16" y="14.696" class="f">Queuing</text><text x="88.176" y="14.696" class="f">to</text><text x="91.182" y="14.696" class="f">be</text><text x="94.188" y="14.696" class="f">pruned…</text></svg><svg x="1616"><use xlink:href="#a"/><use xlink:href="#b" x="-.004" y="13.001"/><use xlink:href="#2"/><use xlink:href="#3" y="4.342"/><use xlink:href="#4" y="8.684"/></svg><svg x="1717"><use xlink:href="#a"/><use xlink:href="#b" x="82.996" y="13.001"/><use xlink:href="#2"/><use xlink:href="#3" y="4.342"/><use xlink:href="#4" y="8.684"/><text y="14.696" class="f">▓▓▓░░░░░░</text><text x="11.022" y="14.696" class="f">40/100</text><text x="18.036" y="14.696" class="f">(~3</text><text x="22.044" y="14.696" class="f">secs)</text><text x="28.056" y="14.696" class="f">Damian</text><text x="35.07" y="14.696" class="f">Berge</text><text x="41.082" y="14.696" class="f">&lt;lora77@mayer.com&gt;</text><text x="60.12" y="14.696" class="f">→</text><text x="62.124" y="14.696" class="f">Queuing</text><text x="70.14" y="14.696" class="f">to</text><text x="73.146" y="14.696" class="f">be</text><text x="76.152" y="14.696" class="f">pruned…</text></svg><svg x="1818"><use xlink:href="#a"/><use xlink:href="#b" x="-.004" y="13.001"/><use xlink:href="#2"/><use xlink:href="#3" y="4.342"/><use xlink:href="#4" y="8.684"/></svg><svg x="1919"><use xlink:href="#a"/><use xlink:href="#b" x="94.996" y="13.001"/><use xlink:href="#2"/><use xlink:href="#3" y="4.342"/><use xlink:href="#4" y="8.684"/><text y="14.696" class="f">▓▓▓▓░░░░░</text><text x="11.022" y="14.696" class="f">50/100</text><text x="18.036" y="14.696" class="f">(~2</text><text x="22.044" y="14.696" class="f">secs)</text><text x="28.056" y="14.696" class="f">Avery</text><text x="34.068" y="14.696" class="f">Treutel</text><text x="42.084" y="14.696" class="f">&lt;osinski.coralie@okuneva.com&gt;</text><text x="72.144" y="14.696" class="f">→</text><text x="74.148" y="14.696" class="f">Queuing</text><text x="82.164" y="14.696" class="f">to</text><text x="85.17" y="14.696" class="f">be</text><text x="88.176" y="14.696" class="f">pruned…</text></svg><svg x="2020"><use xlink:href="#a"/><use xlink:href="#b" x="-.004" y="13.001"/><use xlink:href="#2"/><use xlink:href="#3" y="4.342"/><use xlink:href="#4" y="8.684"/></svg><svg x="2121"><use xlink:href="#a"/><use xlink:href="#b" x="84.996" y="13.001"/><use xlink:href="#2"/><use xlink:href="#3" y="4.342"/><use xlink:href="#4" y="8.684"/><text y="14.696" class="f">▓▓▓▓▓░░░░</text><text x="11.022" y="14.696" class="f">60/100</text><text x="18.036" y="14.696" class="f">(~1</text><text x="22.044" y="14.696" class="f">sec)</text><text x="27.054" y="14.696" class="f">Ursula</text><text x="34.068" y="14.696" class="f">Fisher</text><text x="41.082" y="14.696" class="f">&lt;gritchie@yahoo.com&gt;</text><text x="62.124" y="14.696" class="f">→</text><text x="64.128" y="14.696" class="f">Queuing</text><text x="72.144" y="14.696" class="f">to</text><text x="75.15" y="14.696" class="f">be</text><text x="78.156" y="14.696" class="f">pruned…</text></svg><svg x="2222"><use xlink:href="#a"/><use xlink:href="#b" x="100.996" y="13.001"/><use xlink:href="#2"/><use xlink:href="#3" y="4.342"/><use xlink:href="#4" y="8.684"/><text y="14.696" class="f">▓▓▓▓▓░░░</text><text x="10.02" y="14.696" class="f">70/100</text><text x="17.034" y="14.696" class="f">(~1</text><text x="21.042" y="14.696" class="f">sec)</text><text x="26.052" y="14.696" class="f">Prof.</text><text x="32.064" y="14.696" class="f">Gerardo</text><text x="40.08" y="14.696" class="f">Ondricka</text><text x="49.098" y="14.696" class="f">&lt;buckridge.peyton@yahoo.com&gt;</text><text x="78.156" y="14.696" class="f">→</text><text x="80.16" y="14.696" class="f">Queuing</text><text x="88.176" y="14.696" class="f">to</text><text x="91.182" y="14.696" class="f">be</text><text x="94.188" y="14.696" class="f">pruned…</text></svg><svg x="2323"><use xlink:href="#a"/><use xlink:href="#b" x="89.996" y="13.001"/><use xlink:href="#2"/><use xlink:href="#3" y="4.342"/><use xlink:href="#4" y="8.684"/><text y="14.696" class="f">▓▓▓▓▓▓░░</text><text x="10.02" y="14.696" class="f">80/100</text><text x="17.034" y="14.696" class="f">(~1</text><text x="21.042" y="14.696" class="f">sec)</text><text x="26.052" y="14.696" class="f">Kaela</text><text x="32.064" y="14.696" class="f">Stanton</text><text x="40.08" y="14.696" class="f">&lt;smith.maryam@hotmail.com&gt;</text><text x="67.134" y="14.696" class="f">→</text><text x="69.138" y="14.696" class="f">Queuing</text><text x="77.154" y="14.696" class="f">to</text><text x="80.16" y="14.696" class="f">be</text><text x="83.166" y="14.696" class="f">pruned…</text></svg><svg x="2424"><use xlink:href="#a"/><use xlink:href="#b" x="-.004" y="13.001"/><use xlink:href="#2"/><use xlink:href="#3" y="4.342"/><use xlink:href="#4" y="8.684"/></svg><svg x="2525"><use xlink:href="#a"/><use xlink:href="#b" x="92.996" y="13.001"/><use xlink:href="#2"/><use xlink:href="#3" y="4.342"/><use xlink:href="#4" y="8.684"/><text y="14.696" class="f">▓▓▓▓▓▓▓░</text><text x="10.02" y="14.696" class="f">90/100</text><text x="17.034" y="14.696" class="f">(~&lt;</text><text x="21.042" y="14.696" class="f">1</text><text x="23.046" y="14.696" class="f">sec)</text><text x="28.056" y="14.696" class="f">Aurelia</text><text x="36.072" y="14.696" class="f">Waelchi</text><text x="44.088" y="14.696" class="f">&lt;priscilla29@hotmail.com&gt;</text><text x="70.14" y="14.696" class="f">→</text><text x="72.144" y="14.696" class="f">Queuing</text><text x="80.16" y="14.696" class="f">to</text><text x="83.166" y="14.696" class="f">be</text><text x="86.172" y="14.696" class="f">pruned…</text></svg><svg x="2626"><use xlink:href="#a"/><use xlink:href="#b" x="-.004" y="13.001"/><use xlink:href="#2"/><use xlink:href="#3" y="4.342"/><use xlink:href="#4" y="8.684"/></svg><svg x="2727"><use xlink:href="#a"/><use xlink:href="#b" x="96.996" y="13.001"/><use xlink:href="#2"/><use xlink:href="#3" y="4.342"/><use xlink:href="#4" y="8.684"/><use xlink:href="#5" y="13.026"/></svg><svg x="2828"><use xlink:href="#a"/><use xlink:href="#b" x="-.004" y="15.172"/><use xlink:href="#2"/><use xlink:href="#3" y="4.342"/><use xlink:href="#4" y="8.684"/><use xlink:href="#5" y="13.026"/></svg><svg x="2929"><use xlink:href="#a"/><use xlink:href="#b" x="-.004" y="17.343"/><use xlink:href="#2"/><use xlink:href="#3" y="4.342"/><use xlink:href="#4" y="8.684"/><use xlink:href="#5" y="13.026"/></svg><svg x="3030"><use xlink:href="#a"/><use xlink:href="#b" x="1.996" y="17.343"/><use xlink:href="#2"/><use xlink:href="#3" y="4.342"/><use xlink:href="#4" y="8.684"/><use xlink:href="#5" y="13.026"/><use xlink:href="#1" y="17.368"/></svg><svg x="3131"><use xlink:href="#a"/><use xlink:href="#b" x="-.004" y="19.514"/><use xlink:href="#2"/><use xlink:href="#3" y="4.342"/><use xlink:href="#4" y="8.684"/><use xlink:href="#5" y="13.026"/><text y="19.038" class="f">$</text><text x="2.004" y="19.038" class="f">exit</text></svg></svg></g></g></svg></svg>