<svg xmlns="http://www.w3.org/2000/svg" xmlns:xlink="http://www.w3.org/1999/xlink" width="1050" height="646.17"><rect width="1050" height="646.17" rx="5" ry="5" class="a"/><svg y="0%" x="0%"><circle cx="20" cy="20" r="6" fill="#ff5f58"/><circle cx="40" cy="20" r="6" fill="#ffbd2e"/><circle cx="60" cy="20" r="6" fill="#18c132"/></svg><svg height="586.17" viewBox="0 0 101 58.617" width="1010" x="15" xmlns="http://www.w3.org/2000/svg" xmlns:xlink="http://www.w3.org/1999/xlink" y="50"><style>@keyframes m{0%{transform:translateX(0)}.1%{transform:translateX(-101px)}17.9%{transform:translateX(-303px)}21.6%{transform:translateX(-404px)}22.9%{transform:translateX(-505px)}24.1%{transform:translateX(-606px)}25.9%{transform:translateX(-707px)}26.6%{transform:translateX(-808px)}27.9%{transform:translateX(-909px)}29.2%{transform:translateX(-1010px)}30.6%{transform:translateX(-1111px)}32%{transform:translateX(-1212px)}33.3%{transform:translateX(-1313px)}34.4%{transform:translateX(-1414px)}35.9%{transform:translateX(-1515px)}36.9%{transform:translateX(-1616px)}38%{transform:translateX(-1717px)}40.1%{transform:translateX(-1818px)}41.6%{transform:translateX(-1919px)}41.7%{transform:translateX(-2020px)}41.8%{transform:translateX(-2525px)}42.1%{transform:translateX(-3535px)}42.2%{transform:translateX(-3636px)}52.9%{transform:translateX(-3737px)}58%{transform:translateX(-4141px)}58.3%{transform:translateX(-5252px)}69.9%{transform:translateX(-5656px)}70.2%{transform:translateX(-6767px)}80.1%{transform:translateX(-6868px)}80.7%{transform:translateX(-6969px)}82.5%{transform:translateX(-7373px)}82.6%{transform:translateX(-7474px)}to{transform:translateX(-7575px)}}.a{fill:#282d35}.f,.g{fill:#b9c0cb;white-space:pre}.g{fill:#a8cc8c}</style><g font-family="Monaco,Consolas,Menlo,'Bitstream Vera Sans Mono','Powerline Symbols',monospace" font-size="1.67"><defs><symbol id="1"><text y="1.67" class="f">$</text></symbol><symbol id="2"><text y="1.67" class="f">$</text><text x="2.004" y="1.67" class="f">php</text><text x="6.012" y="1.67" class="f">artisan</text><text x="14.028" y="1.67" class="f">users:fix-email</text></symbol><symbol id="3"><text y="1.67" class="f">$</text><text x="2.004" y="1.67" class="f">php</text><text x="6.012" y="1.67" class="f">artisan</text><text x="14.028" y="1.67" class="f">users:fix-email</text><text x="30.06" y="1.67" class="f">--diff</text></symbol><symbol id="4"><text y="1.67" class="f">$</text><text x="2.004" y="1.67" class="f">php</text><text x="6.012" y="1.67" class="f">artisan</text><text x="14.028" y="1.67" class="f">users:fix-email</text><text x="30.06" y="1.67" class="f">--diff</text><text x="37.074" y="1.67" class="f">--step</text></symbol><symbol id="5"><text y="1.67" class="g">Querying</text><text x="9.018" y="1.67" class="g">records</text><text x="17.034" y="1.67" class="g">(no</text><text x="21.042" y="1.67" class="g">database</text><text x="30.06" y="1.67" class="g">transaction)…</text></symbol><symbol id="6"><text y="1.67" class="f">Processing</text><text x="11.022" y="1.67" class="g">100</text><text x="15.03" y="1.67" class="f">records…</text></symbol><symbol id="7"><text y="1.67" class="g">Rosella</text><text x="8.016" y="1.67" class="g">Stokes</text></symbol><symbol id="8"><text y="1.67" class="f">Changes</text><text x="8.016" y="1.67" class="f">to</text><text x="11.022" y="1.67" class="f">Record</text></symbol><symbol id="9"><text y="1.67" class="f">┌────────────┬─────────────────────┬─────────────────────┐</text></symbol><symbol id="10"><text y="1.67" class="f">│</text><text x="2.004" y="1.67" class="g">Before</text><text x="13.026" y="1.67" class="f">│</text><text x="15.03" y="1.67" class="g">After</text><text x="35.07" y="1.67" class="f">│</text><text x="57.114" y="1.67" class="f">│</text></symbol><symbol id="11"><text y="1.67" class="f">├────────────┼─────────────────────┼─────────────────────┤</text></symbol><symbol id="12"><text y="1.67" class="f">│</text><text x="2.004" y="1.67" class="g">email</text><text x="13.026" y="1.67" class="f">│</text><text x="15.03" y="1.67" class="f">rosella@foo.com</text><text x="35.07" y="1.67" class="f">│</text><text x="37.074" y="1.67" class="f">rosella@foo.com</text><text x="57.114" y="1.67" class="f">│</text></symbol><symbol id="13"><text y="1.67" class="f">│</text><text x="2.004" y="1.67" class="g">updated_at</text><text x="13.026" y="1.67" class="f">│</text><text x="15.03" y="1.67" class="f">2022-01-31</text><text x="26.052" y="1.67" class="f">19:48:48</text><text x="35.07" y="1.67" class="f">│</text><text x="37.074" y="1.67" class="f">2022-01-31</text><text x="48.096" y="1.67" class="f">19:49:23</text><text x="57.114" y="1.67" class="f">│</text></symbol><symbol id="14"><text y="1.67" class="f">└────────────┴─────────────────────┴─────────────────────┘</text></symbol><symbol id="15"><text x="1.002" y="1.67" class="g">Continue?</text><text x="11.022" y="1.67" class="g">(yes/no)</text><text x="20.04" y="1.67" class="f">[</text><text x="21.042" y="1.67" style="white-space:pre" fill="#dbab79">yes</text><text x="24.048" y="1.67" class="f">]:</text></symbol><symbol id="16"><text x="1.002" y="1.67" class="f">&gt;</text></symbol><symbol id="17"><text x="1.002" y="1.67" class="f">&gt;</text><text x="3.006" y="1.67" class="f">y</text></symbol><symbol id="18"><text y="1.67" class="g">Jodie</text><text x="6.012" y="1.67" class="g">White</text></symbol><symbol id="19"><text y="1.67" class="f">│</text><text x="2.004" y="1.67" class="g">email</text><text x="13.026" y="1.67" class="f">│</text><text x="15.03" y="1.67" class="f">jodie@foo.com</text><text x="35.07" y="1.67" class="f">│</text><text x="37.074" y="1.67" class="f">jodie@foo.com</text><text x="57.114" y="1.67" class="f">│</text></symbol><symbol id="20"><text y="1.67" class="f">│</text><text x="2.004" y="1.67" class="g">updated_at</text><text x="13.026" y="1.67" class="f">│</text><text x="15.03" y="1.67" class="f">2022-01-31</text><text x="26.052" y="1.67" class="f">19:48:51</text><text x="35.07" y="1.67" class="f">│</text><text x="37.074" y="1.67" class="f">2022-01-31</text><text x="48.096" y="1.67" class="f">19:49:24</text><text x="57.114" y="1.67" class="f">│</text></symbol><symbol id="21"><text y="1.67" class="g">Prof.</text><text x="6.012" y="1.67" class="g">Camren</text><text x="13.026" y="1.67" class="g">Hauck</text><text x="19.038" y="1.67" class="g">Sr.</text></symbol><symbol id="22"><text y="1.67" class="f">│</text><text x="2.004" y="1.67" class="g">email</text><text x="13.026" y="1.67" class="f">│</text><text x="15.03" y="1.67" class="f">prof.@foo.com</text><text x="35.07" y="1.67" class="f">│</text><text x="37.074" y="1.67" class="f">prof.@foo.com</text><text x="57.114" y="1.67" class="f">│</text></symbol><symbol id="23"><text y="1.67" class="f">│</text><text x="2.004" y="1.67" class="g">updated_at</text><text x="13.026" y="1.67" class="f">│</text><text x="15.03" y="1.67" class="f">2022-01-31</text><text x="26.052" y="1.67" class="f">19:48:53</text><text x="35.07" y="1.67" class="f">│</text><text x="37.074" y="1.67" class="f">2022-01-31</text><text x="48.096" y="1.67" class="f">19:49:26</text><text x="57.114" y="1.67" class="f">│</text></symbol><symbol id="24"><text x="1.002" y="1.67" class="f">&gt;</text><text x="3.006" y="1.67" class="f">no</text></symbol><symbol id="25"><path fill="#e88388" d="M0 0h20v2.171H0z"/><text y="1.67" style="white-space:pre" fill="#b9bfca">Operation cancelled.</text></symbol><symbol id="a"><path fill="transparent" d="M0 0h101v27H0z"/></symbol><symbol id="b"><path fill="#6f7683" d="M0 0h1.102v2.171H0z"/></symbol></defs><path class="a" d="M0 0h101v58.617H0z"/><g style="animation-duration:11.253943s;animation-iteration-count:infinite;animation-name:m;animation-timing-function:steps(1,end)"><svg width="7676"><svg><use xlink:href="#a"/><use xlink:href="#b" x="-.004"/></svg><svg x="101"><use xlink:href="#a"/><use xlink:href="#b" x="1.996"/><use xlink:href="#1"/></svg><svg x="202"><use xlink:href="#a"/><use xlink:href="#b" x="12.996"/><text y="1.67" class="f">$</text><text x="2.004" y="1.67" class="f">php</text><text x="6.012" y="1.67" class="f">artisan</text></svg><svg x="303"><use xlink:href="#a"/><use xlink:href="#b" x="28.996"/><use xlink:href="#2"/></svg><svg x="404"><use xlink:href="#a"/><use xlink:href="#b" x="29.996"/><use xlink:href="#2"/></svg><svg x="505"><use xlink:href="#a"/><use xlink:href="#b" x="30.996"/><text y="1.67" class="f">$</text><text x="2.004" y="1.67" class="f">php</text><text x="6.012" y="1.67" class="f">artisan</text><text x="14.028" y="1.67" class="f">users:fix-email</text><text x="30.06" y="1.67" class="f">-</text></svg><svg x="606"><use xlink:href="#a"/><use xlink:href="#b" x="31.996"/><text y="1.67" class="f">$</text><text x="2.004" y="1.67" class="f">php</text><text x="6.012" y="1.67" class="f">artisan</text><text x="14.028" y="1.67" class="f">users:fix-email</text><text x="30.06" y="1.67" class="f">--</text></svg><svg x="707"><use xlink:href="#a"/><use xlink:href="#b" x="32.996"/><text y="1.67" class="f">$</text><text x="2.004" y="1.67" class="f">php</text><text x="6.012" y="1.67" class="f">artisan</text><text x="14.028" y="1.67" class="f">users:fix-email</text><text x="30.06" y="1.67" class="f">--d</text></svg><svg x="808"><use xlink:href="#a"/><use xlink:href="#b" x="33.996"/><text y="1.67" class="f">$</text><text x="2.004" y="1.67" class="f">php</text><text x="6.012" y="1.67" class="f">artisan</text><text x="14.028" y="1.67" class="f">users:fix-email</text><text x="30.06" y="1.67" class="f">--di</text></svg><svg x="909"><use xlink:href="#a"/><use xlink:href="#b" x="34.996"/><text y="1.67" class="f">$</text><text x="2.004" y="1.67" class="f">php</text><text x="6.012" y="1.67" class="f">artisan</text><text x="14.028" y="1.67" class="f">users:fix-email</text><text x="30.06" y="1.67" class="f">--dif</text></svg><svg x="1010"><use xlink:href="#a"/><use xlink:href="#b" x="35.996"/><use xlink:href="#3"/></svg><svg x="1111"><use xlink:href="#a"/><use xlink:href="#b" x="36.996"/><use xlink:href="#3"/></svg><svg x="1212"><use xlink:href="#a"/><use xlink:href="#b" x="37.996"/><text y="1.67" class="f">$</text><text x="2.004" y="1.67" class="f">php</text><text x="6.012" y="1.67" class="f">artisan</text><text x="14.028" y="1.67" class="f">users:fix-email</text><text x="30.06" y="1.67" class="f">--diff</text><text x="37.074" y="1.67" class="f">-</text></svg><svg x="1313"><use xlink:href="#a"/><use xlink:href="#b" x="38.996"/><text y="1.67" class="f">$</text><text x="2.004" y="1.67" class="f">php</text><text x="6.012" y="1.67" class="f">artisan</text><text x="14.028" y="1.67" class="f">users:fix-email</text><text x="30.06" y="1.67" class="f">--diff</text><text x="37.074" y="1.67" class="f">--</text></svg><svg x="1414"><use xlink:href="#a"/><use xlink:href="#b" x="39.996"/><text y="1.67" class="f">$</text><text x="2.004" y="1.67" class="f">php</text><text x="6.012" y="1.67" class="f">artisan</text><text x="14.028" y="1.67" class="f">users:fix-email</text><text x="30.06" y="1.67" class="f">--diff</text><text x="37.074" y="1.67" class="f">--s</text></svg><svg x="1515"><use xlink:href="#a"/><use xlink:href="#b" x="40.996"/><text y="1.67" class="f">$</text><text x="2.004" y="1.67" class="f">php</text><text x="6.012" y="1.67" class="f">artisan</text><text x="14.028" y="1.67" class="f">users:fix-email</text><text x="30.06" y="1.67" class="f">--diff</text><text x="37.074" y="1.67" class="f">--st</text></svg><svg x="1616"><use xlink:href="#a"/><use xlink:href="#b" x="41.996"/><text y="1.67" class="f">$</text><text x="2.004" y="1.67" class="f">php</text><text x="6.012" y="1.67" class="f">artisan</text><text x="14.028" y="1.67" class="f">users:fix-email</text><text x="30.06" y="1.67" class="f">--diff</text><text x="37.074" y="1.67" class="f">--ste</text></svg><svg x="1717"><use xlink:href="#a"/><use xlink:href="#b" x="42.996"/><use xlink:href="#4"/></svg><svg x="1818"><use xlink:href="#a"/><use xlink:href="#b" x="-.004" y="2.146"/><use xlink:href="#4"/></svg><svg x="1919"><use xlink:href="#a"/><use xlink:href="#b" x="-.004" y="4.317"/><use xlink:href="#4"/></svg><svg x="2020"><use xlink:href="#a"/><use xlink:href="#b" x="-.004" y="6.488"/><use xlink:href="#4"/><use xlink:href="#5" y="4.342"/></svg><svg x="2121"><use xlink:href="#a"/><use xlink:href="#b" x="-.004" y="8.659"/><use xlink:href="#4"/><use xlink:href="#5" y="4.342"/></svg><svg x="2222"><use xlink:href="#a"/><use xlink:href="#b" x="-.004" y="10.83"/><use xlink:href="#4"/><use xlink:href="#5" y="4.342"/><use xlink:href="#6" y="8.684"/></svg><svg x="2323"><use xlink:href="#a"/><use xlink:href="#b" x="-.004" y="13.001"/><use xlink:href="#4"/><use xlink:href="#5" y="4.342"/><use xlink:href="#6" y="8.684"/></svg><svg x="2424"><use xlink:href="#a"/><use xlink:href="#b" x="-.004" y="15.172"/><use xlink:href="#4"/><use xlink:href="#5" y="4.342"/><use xlink:href="#6" y="8.684"/></svg><svg x="2525"><use xlink:href="#a"/><use xlink:href="#b" x="-.004" y="17.343"/><use xlink:href="#4"/><use xlink:href="#5" y="4.342"/><use xlink:href="#6" y="8.684"/><use xlink:href="#7" y="15.197"/></svg><svg x="2626"><use xlink:href="#a"/><use xlink:href="#b" x="-.004" y="19.514"/><use xlink:href="#4"/><use xlink:href="#5" y="4.342"/><use xlink:href="#6" y="8.684"/><use xlink:href="#7" y="15.197"/></svg><svg x="2727"><use xlink:href="#a"/><use xlink:href="#b" x="-.004" y="21.685"/><use xlink:href="#4"/><use xlink:href="#5" y="4.342"/><use xlink:href="#6" y="8.684"/><use xlink:href="#7" y="15.197"/><use xlink:href="#8" y="19.539"/></svg><svg x="2828"><use xlink:href="#a"/><use xlink:href="#b" x="-.004" y="23.856"/><use xlink:href="#4"/><use xlink:href="#5" y="4.342"/><use xlink:href="#6" y="8.684"/><use xlink:href="#7" y="15.197"/><use xlink:href="#8" y="19.539"/><use xlink:href="#9" y="21.71"/></svg><svg x="2929"><use xlink:href="#a"/><use xlink:href="#b" x="-.004" y="26.027"/><use xlink:href="#4"/><use xlink:href="#5" y="4.342"/><use xlink:href="#6" y="8.684"/><use xlink:href="#7" y="15.197"/><use xlink:href="#8" y="19.539"/><use xlink:href="#9" y="21.71"/><use xlink:href="#10" y="23.881"/></svg><svg x="3030"><use xlink:href="#a"/><use xlink:href="#b" x="-.004" y="28.198"/><use xlink:href="#4"/><use xlink:href="#5" y="4.342"/><use xlink:href="#6" y="8.684"/><use xlink:href="#7" y="15.197"/><use xlink:href="#8" y="19.539"/><use xlink:href="#9" y="21.71"/><use xlink:href="#10" y="23.881"/><use xlink:href="#11" y="26.052"/></svg><svg x="3131"><use xlink:href="#a"/><use xlink:href="#b" x="-.004" y="30.369"/><use xlink:href="#4"/><use xlink:href="#5" y="4.342"/><use xlink:href="#6" y="8.684"/><use xlink:href="#7" y="15.197"/><use xlink:href="#8" y="19.539"/><use xlink:href="#9" y="21.71"/><use xlink:href="#10" y="23.881"/><use xlink:href="#11" y="26.052"/><use xlink:href="#12" y="28.223"/></svg><svg x="3232"><use xlink:href="#a"/><use xlink:href="#b" x="-.004" y="32.54"/><use xlink:href="#4"/><use xlink:href="#5" y="4.342"/><use xlink:href="#6" y="8.684"/><use xlink:href="#7" y="15.197"/><use xlink:href="#8" y="19.539"/><use xlink:href="#9" y="21.71"/><use xlink:href="#10" y="23.881"/><use xlink:href="#11" y="26.052"/><use xlink:href="#12" y="28.223"/><use xlink:href="#13" y="30.394"/></svg><svg x="3333"><use xlink:href="#a"/><use xlink:href="#b" x="-.004" y="34.711"/><use xlink:href="#4"/><use xlink:href="#5" y="4.342"/><use xlink:href="#6" y="8.684"/><use xlink:href="#7" y="15.197"/><use xlink:href="#8" y="19.539"/><use xlink:href="#9" y="21.71"/><use xlink:href="#10" y="23.881"/><use xlink:href="#11" y="26.052"/><use xlink:href="#12" y="28.223"/><use xlink:href="#13" y="30.394"/><use xlink:href="#14" y="32.565"/></svg><svg x="3434"><use xlink:href="#a"/><use xlink:href="#b" x="-.004" y="36.882"/><use xlink:href="#4"/><use xlink:href="#5" y="4.342"/><use xlink:href="#6" y="8.684"/><use xlink:href="#7" y="15.197"/><use xlink:href="#8" y="19.539"/><use xlink:href="#9" y="21.71"/><use xlink:href="#10" y="23.881"/><use xlink:href="#11" y="26.052"/><use xlink:href="#12" y="28.223"/><use xlink:href="#13" y="30.394"/><use xlink:href="#14" y="32.565"/></svg><svg x="3535"><use xlink:href="#a"/><use xlink:href="#b" x="-.004" y="39.053"/><use xlink:href="#4"/><use xlink:href="#5" y="4.342"/><use xlink:href="#6" y="8.684"/><use xlink:href="#7" y="15.197"/><use xlink:href="#8" y="19.539"/><use xlink:href="#9" y="21.71"/><use xlink:href="#10" y="23.881"/><use xlink:href="#11" y="26.052"/><use xlink:href="#12" y="28.223"/><use xlink:href="#13" y="30.394"/><use xlink:href="#14" y="32.565"/><use xlink:href="#15" y="36.907"/></svg><svg x="3636"><use xlink:href="#a"/><use xlink:href="#b" x="2.996" y="39.053"/><use xlink:href="#4"/><use xlink:href="#5" y="4.342"/><use xlink:href="#6" y="8.684"/><use xlink:href="#7" y="15.197"/><use xlink:href="#8" y="19.539"/><use xlink:href="#9" y="21.71"/><use xlink:href="#10" y="23.881"/><use xlink:href="#11" y="26.052"/><use xlink:href="#12" y="28.223"/><use xlink:href="#13" y="30.394"/><use xlink:href="#14" y="32.565"/><use xlink:href="#15" y="36.907"/><use xlink:href="#16" y="39.078"/></svg><svg x="3737"><use xlink:href="#a"/><use xlink:href="#b" x="3.996" y="39.053"/><use xlink:href="#4"/><use xlink:href="#5" y="4.342"/><use xlink:href="#6" y="8.684"/><use xlink:href="#7" y="15.197"/><use xlink:href="#8" y="19.539"/><use xlink:href="#9" y="21.71"/><use xlink:href="#10" y="23.881"/><use xlink:href="#11" y="26.052"/><use xlink:href="#12" y="28.223"/><use xlink:href="#13" y="30.394"/><use xlink:href="#14" y="32.565"/><use xlink:href="#15" y="36.907"/><use xlink:href="#17" y="39.078"/></svg><svg x="3838"><use xlink:href="#a"/><use xlink:href="#b" x="-.004" y="41.224"/><use xlink:href="#4"/><use xlink:href="#5" y="4.342"/><use xlink:href="#6" y="8.684"/><use xlink:href="#7" y="15.197"/><use xlink:href="#8" y="19.539"/><use xlink:href="#9" y="21.71"/><use xlink:href="#10" y="23.881"/><use xlink:href="#11" y="26.052"/><use xlink:href="#12" y="28.223"/><use xlink:href="#13" y="30.394"/><use xlink:href="#14" y="32.565"/><use xlink:href="#15" y="36.907"/><use xlink:href="#17" y="39.078"/></svg><svg x="3939"><use xlink:href="#a"/><use xlink:href="#b" x="-.004" y="43.395"/><use xlink:href="#4"/><use xlink:href="#5" y="4.342"/><use xlink:href="#6" y="8.684"/><use xlink:href="#7" y="15.197"/><use xlink:href="#8" y="19.539"/><use xlink:href="#9" y="21.71"/><use xlink:href="#10" y="23.881"/><use xlink:href="#11" y="26.052"/><use xlink:href="#12" y="28.223"/><use xlink:href="#13" y="30.394"/><use xlink:href="#14" y="32.565"/><use xlink:href="#15" y="36.907"/><use xlink:href="#17" y="39.078"/></svg><svg x="4040"><use xlink:href="#a"/><use xlink:href="#b" x="-.004" y="45.566"/><use xlink:href="#4"/><use xlink:href="#5" y="4.342"/><use xlink:href="#6" y="8.684"/><use xlink:href="#7" y="15.197"/><use xlink:href="#8" y="19.539"/><use xlink:href="#9" y="21.71"/><use xlink:href="#10" y="23.881"/><use xlink:href="#11" y="26.052"/><use xlink:href="#12" y="28.223"/><use xlink:href="#13" y="30.394"/><use xlink:href="#14" y="32.565"/><use xlink:href="#15" y="36.907"/><use xlink:href="#17" y="39.078"/></svg><svg x="4141"><use xlink:href="#a"/><use xlink:href="#b" x="-.004" y="47.737"/><use xlink:href="#4"/><use xlink:href="#5" y="4.342"/><use xlink:href="#6" y="8.684"/><use xlink:href="#7" y="15.197"/><use xlink:href="#8" y="19.539"/><use xlink:href="#9" y="21.71"/><use xlink:href="#10" y="23.881"/><use xlink:href="#11" y="26.052"/><use xlink:href="#12" y="28.223"/><use xlink:href="#13" y="30.394"/><use xlink:href="#14" y="32.565"/><use xlink:href="#15" y="36.907"/><use xlink:href="#17" y="39.078"/><use xlink:href="#18" y="45.591"/></svg><svg x="4242"><use xlink:href="#a"/><use xlink:href="#b" x="-.004" y="49.908"/><use xlink:href="#4"/><use xlink:href="#5" y="4.342"/><use xlink:href="#6" y="8.684"/><use xlink:href="#7" y="15.197"/><use xlink:href="#8" y="19.539"/><use xlink:href="#9" y="21.71"/><use xlink:href="#10" y="23.881"/><use xlink:href="#11" y="26.052"/><use xlink:href="#12" y="28.223"/><use xlink:href="#13" y="30.394"/><use xlink:href="#14" y="32.565"/><use xlink:href="#15" y="36.907"/><use xlink:href="#17" y="39.078"/><use xlink:href="#18" y="45.591"/></svg><svg x="4343"><use xlink:href="#a"/><use xlink:href="#b" x="-.004" y="52.079"/><use xlink:href="#4"/><use xlink:href="#5" y="4.342"/><use xlink:href="#6" y="8.684"/><use xlink:href="#7" y="15.197"/><use xlink:href="#8" y="19.539"/><use xlink:href="#9" y="21.71"/><use xlink:href="#10" y="23.881"/><use xlink:href="#11" y="26.052"/><use xlink:href="#12" y="28.223"/><use xlink:href="#13" y="30.394"/><use xlink:href="#14" y="32.565"/><use xlink:href="#15" y="36.907"/><use xlink:href="#17" y="39.078"/><use xlink:href="#18" y="45.591"/><use xlink:href="#8" y="49.933"/></svg><svg x="4444"><use xlink:href="#a"/><use xlink:href="#b" x="-.004" y="54.25"/><use xlink:href="#4"/><use xlink:href="#5" y="4.342"/><use xlink:href="#6" y="8.684"/><use xlink:href="#7" y="15.197"/><use xlink:href="#8" y="19.539"/><use xlink:href="#9" y="21.71"/><use xlink:href="#10" y="23.881"/><use xlink:href="#11" y="26.052"/><use xlink:href="#12" y="28.223"/><use xlink:href="#13" y="30.394"/><use xlink:href="#14" y="32.565"/><use xlink:href="#15" y="36.907"/><use xlink:href="#17" y="39.078"/><use xlink:href="#18" y="45.591"/><use xlink:href="#8" y="49.933"/><use xlink:href="#9" y="52.104"/></svg><svg x="4545"><use xlink:href="#a"/><use xlink:href="#b" x="-.004" y="56.421"/><use xlink:href="#4"/><use xlink:href="#5" y="4.342"/><use xlink:href="#6" y="8.684"/><use xlink:href="#7" y="15.197"/><use xlink:href="#8" y="19.539"/><use xlink:href="#9" y="21.71"/><use xlink:href="#10" y="23.881"/><use xlink:href="#11" y="26.052"/><use xlink:href="#12" y="28.223"/><use xlink:href="#13" y="30.394"/><use xlink:href="#14" y="32.565"/><use xlink:href="#15" y="36.907"/><use xlink:href="#17" y="39.078"/><use xlink:href="#18" y="45.591"/><use xlink:href="#8" y="49.933"/><use xlink:href="#9" y="52.104"/><use xlink:href="#10" y="54.275"/></svg><svg x="4646"><use xlink:href="#a"/><use xlink:href="#b" x="-.004" y="56.421"/><use xlink:href="#5" y="2.171"/><use xlink:href="#6" y="6.513"/><use xlink:href="#7" y="13.026"/><use xlink:href="#8" y="17.368"/><use xlink:href="#9" y="19.539"/><use xlink:href="#10" y="21.71"/><use xlink:href="#11" y="23.881"/><use xlink:href="#12" y="26.052"/><use xlink:href="#13" y="28.223"/><use xlink:href="#14" y="30.394"/><use xlink:href="#15" y="34.736"/><use xlink:href="#17" y="36.907"/><use xlink:href="#18" y="43.42"/><use xlink:href="#8" y="47.762"/><use xlink:href="#9" y="49.933"/><use xlink:href="#10" y="52.104"/><use xlink:href="#11" y="54.275"/></svg><svg x="4747"><use xlink:href="#a"/><use xlink:href="#b" x="-.004" y="56.421"/><use xlink:href="#5"/><use xlink:href="#6" y="4.342"/><use xlink:href="#7" y="10.855"/><use xlink:href="#8" y="15.197"/><use xlink:href="#9" y="17.368"/><use xlink:href="#10" y="19.539"/><use xlink:href="#11" y="21.71"/><use xlink:href="#12" y="23.881"/><use xlink:href="#13" y="26.052"/><use xlink:href="#14" y="28.223"/><use xlink:href="#15" y="32.565"/><use xlink:href="#17" y="34.736"/><use xlink:href="#18" y="41.249"/><use xlink:href="#8" y="45.591"/><use xlink:href="#9" y="47.762"/><use xlink:href="#10" y="49.933"/><use xlink:href="#11" y="52.104"/><use xlink:href="#19" y="54.275"/></svg><svg x="4848"><use xlink:href="#a"/><use xlink:href="#b" x="-.004" y="56.421"/><use xlink:href="#6" y="2.171"/><use xlink:href="#7" y="8.684"/><use xlink:href="#8" y="13.026"/><use xlink:href="#9" y="15.197"/><use xlink:href="#10" y="17.368"/><use xlink:href="#11" y="19.539"/><use xlink:href="#12" y="21.71"/><use xlink:href="#13" y="23.881"/><use xlink:href="#14" y="26.052"/><use xlink:href="#15" y="30.394"/><use xlink:href="#17" y="32.565"/><use xlink:href="#18" y="39.078"/><use xlink:href="#8" y="43.42"/><use xlink:href="#9" y="45.591"/><use xlink:href="#10" y="47.762"/><use xlink:href="#11" y="49.933"/><use xlink:href="#19" y="52.104"/><use xlink:href="#20" y="54.275"/></svg><svg x="4949"><use xlink:href="#a"/><use xlink:href="#b" x="-.004" y="56.421"/><use xlink:href="#6"/><use xlink:href="#7" y="6.513"/><use xlink:href="#8" y="10.855"/><use xlink:href="#9" y="13.026"/><use xlink:href="#10" y="15.197"/><use xlink:href="#11" y="17.368"/><use xlink:href="#12" y="19.539"/><use xlink:href="#13" y="21.71"/><use xlink:href="#14" y="23.881"/><use xlink:href="#15" y="28.223"/><use xlink:href="#17" y="30.394"/><use xlink:href="#18" y="36.907"/><use xlink:href="#8" y="41.249"/><use xlink:href="#9" y="43.42"/><use xlink:href="#10" y="45.591"/><use xlink:href="#11" y="47.762"/><use xlink:href="#19" y="49.933"/><use xlink:href="#20" y="52.104"/><use xlink:href="#14" y="54.275"/></svg><svg x="5050"><use xlink:href="#a"/><use xlink:href="#b" x="-.004" y="56.421"/><use xlink:href="#7" y="4.342"/><use xlink:href="#8" y="8.684"/><use xlink:href="#9" y="10.855"/><use xlink:href="#10" y="13.026"/><use xlink:href="#11" y="15.197"/><use xlink:href="#12" y="17.368"/><use xlink:href="#13" y="19.539"/><use xlink:href="#14" y="21.71"/><use xlink:href="#15" y="26.052"/><use xlink:href="#17" y="28.223"/><use xlink:href="#18" y="34.736"/><use xlink:href="#8" y="39.078"/><use xlink:href="#9" y="41.249"/><use xlink:href="#10" y="43.42"/><use xlink:href="#11" y="45.591"/><use xlink:href="#19" y="47.762"/><use xlink:href="#20" y="49.933"/><use xlink:href="#14" y="52.104"/></svg><svg x="5151"><use xlink:href="#a"/><use xlink:href="#b" x="-.004" y="56.421"/><use xlink:href="#7" y="2.171"/><use xlink:href="#8" y="6.513"/><use xlink:href="#9" y="8.684"/><use xlink:href="#10" y="10.855"/><use xlink:href="#11" y="13.026"/><use xlink:href="#12" y="15.197"/><use xlink:href="#13" y="17.368"/><use xlink:href="#14" y="19.539"/><use xlink:href="#15" y="23.881"/><use xlink:href="#17" y="26.052"/><use xlink:href="#18" y="32.565"/><use xlink:href="#8" y="36.907"/><use xlink:href="#9" y="39.078"/><use xlink:href="#10" y="41.249"/><use xlink:href="#11" y="43.42"/><use xlink:href="#19" y="45.591"/><use xlink:href="#20" y="47.762"/><use xlink:href="#14" y="49.933"/><use xlink:href="#15" y="54.275"/></svg><svg x="5252"><use xlink:href="#a"/><use xlink:href="#b" x="2.996" y="56.421"/><use xlink:href="#7" y="2.171"/><use xlink:href="#8" y="6.513"/><use xlink:href="#9" y="8.684"/><use xlink:href="#10" y="10.855"/><use xlink:href="#11" y="13.026"/><use xlink:href="#12" y="15.197"/><use xlink:href="#13" y="17.368"/><use xlink:href="#14" y="19.539"/><use xlink:href="#15" y="23.881"/><use xlink:href="#17" y="26.052"/><use xlink:href="#18" y="32.565"/><use xlink:href="#8" y="36.907"/><use xlink:href="#9" y="39.078"/><use xlink:href="#10" y="41.249"/><use xlink:href="#11" y="43.42"/><use xlink:href="#19" y="45.591"/><use xlink:href="#20" y="47.762"/><use xlink:href="#14" y="49.933"/><use xlink:href="#15" y="54.275"/><use xlink:href="#16" y="56.446"/></svg><svg x="5353"><use xlink:href="#a"/><use xlink:href="#b" x="-.004" y="56.421"/><use xlink:href="#7"/><use xlink:href="#8" y="4.342"/><use xlink:href="#9" y="6.513"/><use xlink:href="#10" y="8.684"/><use xlink:href="#11" y="10.855"/><use xlink:href="#12" y="13.026"/><use xlink:href="#13" y="15.197"/><use xlink:href="#14" y="17.368"/><use xlink:href="#15" y="21.71"/><use xlink:href="#17" y="23.881"/><use xlink:href="#18" y="30.394"/><use xlink:href="#8" y="34.736"/><use xlink:href="#9" y="36.907"/><use xlink:href="#10" y="39.078"/><use xlink:href="#11" y="41.249"/><use xlink:href="#19" y="43.42"/><use xlink:href="#20" y="45.591"/><use xlink:href="#14" y="47.762"/><use xlink:href="#15" y="52.104"/><use xlink:href="#16" y="54.275"/></svg><svg x="5454"><use xlink:href="#a"/><use xlink:href="#b" x="-.004" y="56.421"/><use xlink:href="#8" y="2.171"/><use xlink:href="#9" y="4.342"/><use xlink:href="#10" y="6.513"/><use xlink:href="#11" y="8.684"/><use xlink:href="#12" y="10.855"/><use xlink:href="#13" y="13.026"/><use xlink:href="#14" y="15.197"/><use xlink:href="#15" y="19.539"/><use xlink:href="#17" y="21.71"/><use xlink:href="#18" y="28.223"/><use xlink:href="#8" y="32.565"/><use xlink:href="#9" y="34.736"/><use xlink:href="#10" y="36.907"/><use xlink:href="#11" y="39.078"/><use xlink:href="#19" y="41.249"/><use xlink:href="#20" y="43.42"/><use xlink:href="#14" y="45.591"/><use xlink:href="#15" y="49.933"/><use xlink:href="#16" y="52.104"/></svg><svg x="5555"><use xlink:href="#a"/><use xlink:href="#b" x="-.004" y="56.421"/><use xlink:href="#8"/><use xlink:href="#9" y="2.171"/><use xlink:href="#10" y="4.342"/><use xlink:href="#11" y="6.513"/><use xlink:href="#12" y="8.684"/><use xlink:href="#13" y="10.855"/><use xlink:href="#14" y="13.026"/><use xlink:href="#15" y="17.368"/><use xlink:href="#17" y="19.539"/><use xlink:href="#18" y="26.052"/><use xlink:href="#8" y="30.394"/><use xlink:href="#9" y="32.565"/><use xlink:href="#10" y="34.736"/><use xlink:href="#11" y="36.907"/><use xlink:href="#19" y="39.078"/><use xlink:href="#20" y="41.249"/><use xlink:href="#14" y="43.42"/><use xlink:href="#15" y="47.762"/><use xlink:href="#16" y="49.933"/></svg><svg x="5656"><use xlink:href="#a"/><use xlink:href="#b" x="-.004" y="56.421"/><use xlink:href="#9"/><use xlink:href="#10" y="2.171"/><use xlink:href="#11" y="4.342"/><use xlink:href="#12" y="6.513"/><use xlink:href="#13" y="8.684"/><use xlink:href="#14" y="10.855"/><use xlink:href="#15" y="15.197"/><use xlink:href="#17" y="17.368"/><use xlink:href="#18" y="23.881"/><use xlink:href="#8" y="28.223"/><use xlink:href="#9" y="30.394"/><use xlink:href="#10" y="32.565"/><use xlink:href="#11" y="34.736"/><use xlink:href="#19" y="36.907"/><use xlink:href="#20" y="39.078"/><use xlink:href="#14" y="41.249"/><use xlink:href="#15" y="45.591"/><use xlink:href="#16" y="47.762"/><use xlink:href="#21" y="54.275"/></svg><svg x="5757"><use xlink:href="#a"/><use xlink:href="#b" x="-.004" y="56.421"/><use xlink:href="#10"/><use xlink:href="#11" y="2.171"/><use xlink:href="#12" y="4.342"/><use xlink:href="#13" y="6.513"/><use xlink:href="#14" y="8.684"/><use xlink:href="#15" y="13.026"/><use xlink:href="#17" y="15.197"/><use xlink:href="#18" y="21.71"/><use xlink:href="#8" y="26.052"/><use xlink:href="#9" y="28.223"/><use xlink:href="#10" y="30.394"/><use xlink:href="#11" y="32.565"/><use xlink:href="#19" y="34.736"/><use xlink:href="#20" y="36.907"/><use xlink:href="#14" y="39.078"/><use xlink:href="#15" y="43.42"/><use xlink:href="#16" y="45.591"/><use xlink:href="#21" y="52.104"/></svg><svg x="5858"><use xlink:href="#a"/><use xlink:href="#b" x="-.004" y="56.421"/><use xlink:href="#11"/><use xlink:href="#12" y="2.171"/><use xlink:href="#13" y="4.342"/><use xlink:href="#14" y="6.513"/><use xlink:href="#15" y="10.855"/><use xlink:href="#17" y="13.026"/><use xlink:href="#18" y="19.539"/><use xlink:href="#8" y="23.881"/><use xlink:href="#9" y="26.052"/><use xlink:href="#10" y="28.223"/><use xlink:href="#11" y="30.394"/><use xlink:href="#19" y="32.565"/><use xlink:href="#20" y="34.736"/><use xlink:href="#14" y="36.907"/><use xlink:href="#15" y="41.249"/><use xlink:href="#16" y="43.42"/><use xlink:href="#21" y="49.933"/><use xlink:href="#8" y="54.275"/></svg><svg x="5959"><use xlink:href="#a"/><use xlink:href="#b" x="-.004" y="56.421"/><use xlink:href="#12"/><use xlink:href="#13" y="2.171"/><use xlink:href="#14" y="4.342"/><use xlink:href="#15" y="8.684"/><use xlink:href="#17" y="10.855"/><use xlink:href="#18" y="17.368"/><use xlink:href="#8" y="21.71"/><use xlink:href="#9" y="23.881"/><use xlink:href="#10" y="26.052"/><use xlink:href="#11" y="28.223"/><use xlink:href="#19" y="30.394"/><use xlink:href="#20" y="32.565"/><use xlink:href="#14" y="34.736"/><use xlink:href="#15" y="39.078"/><use xlink:href="#16" y="41.249"/><use xlink:href="#21" y="47.762"/><use xlink:href="#8" y="52.104"/><use xlink:href="#9" y="54.275"/></svg><svg x="6060"><use xlink:href="#a"/><use xlink:href="#b" x="-.004" y="56.421"/><use xlink:href="#13"/><use xlink:href="#14" y="2.171"/><use xlink:href="#15" y="6.513"/><use xlink:href="#17" y="8.684"/><use xlink:href="#18" y="15.197"/><use xlink:href="#8" y="19.539"/><use xlink:href="#9" y="21.71"/><use xlink:href="#10" y="23.881"/><use xlink:href="#11" y="26.052"/><use xlink:href="#19" y="28.223"/><use xlink:href="#20" y="30.394"/><use xlink:href="#14" y="32.565"/><use xlink:href="#15" y="36.907"/><use xlink:href="#16" y="39.078"/><use xlink:href="#21" y="45.591"/><use xlink:href="#8" y="49.933"/><use xlink:href="#9" y="52.104"/><use xlink:href="#10" y="54.275"/></svg><svg x="6161"><use xlink:href="#a"/><use xlink:href="#b" x="-.004" y="56.421"/><use xlink:href="#14"/><use xlink:href="#15" y="4.342"/><use xlink:href="#17" y="6.513"/><use xlink:href="#18" y="13.026"/><use xlink:href="#8" y="17.368"/><use xlink:href="#9" y="19.539"/><use xlink:href="#10" y="21.71"/><use xlink:href="#11" y="23.881"/><use xlink:href="#19" y="26.052"/><use xlink:href="#20" y="28.223"/><use xlink:href="#14" y="30.394"/><use xlink:href="#15" y="34.736"/><use xlink:href="#16" y="36.907"/><use xlink:href="#21" y="43.42"/><use xlink:href="#8" y="47.762"/><use xlink:href="#9" y="49.933"/><use xlink:href="#10" y="52.104"/><use xlink:href="#11" y="54.275"/></svg><svg x="6262"><use xlink:href="#a"/><use xlink:href="#b" x="-.004" y="56.421"/><use xlink:href="#15" y="2.171"/><use xlink:href="#17" y="4.342"/><use xlink:href="#18" y="10.855"/><use xlink:href="#8" y="15.197"/><use xlink:href="#9" y="17.368"/><use xlink:href="#10" y="19.539"/><use xlink:href="#11" y="21.71"/><use xlink:href="#19" y="23.881"/><use xlink:href="#20" y="26.052"/><use xlink:href="#14" y="28.223"/><use xlink:href="#15" y="32.565"/><use xlink:href="#16" y="34.736"/><use xlink:href="#21" y="41.249"/><use xlink:href="#8" y="45.591"/><use xlink:href="#9" y="47.762"/><use xlink:href="#10" y="49.933"/><use xlink:href="#11" y="52.104"/><use xlink:href="#22" y="54.275"/></svg><svg x="6363"><use xlink:href="#a"/><use xlink:href="#b" x="-.004" y="56.421"/><use xlink:href="#15"/><use xlink:href="#17" y="2.171"/><use xlink:href="#18" y="8.684"/><use xlink:href="#8" y="13.026"/><use xlink:href="#9" y="15.197"/><use xlink:href="#10" y="17.368"/><use xlink:href="#11" y="19.539"/><use xlink:href="#19" y="21.71"/><use xlink:href="#20" y="23.881"/><use xlink:href="#14" y="26.052"/><use xlink:href="#15" y="30.394"/><use xlink:href="#16" y="32.565"/><use xlink:href="#21" y="39.078"/><use xlink:href="#8" y="43.42"/><use xlink:href="#9" y="45.591"/><use xlink:href="#10" y="47.762"/><use xlink:href="#11" y="49.933"/><use xlink:href="#22" y="52.104"/><use xlink:href="#23" y="54.275"/></svg><svg x="6464"><use xlink:href="#a"/><use xlink:href="#b" x="-.004" y="56.421"/><use xlink:href="#17"/><use xlink:href="#18" y="6.513"/><use xlink:href="#8" y="10.855"/><use xlink:href="#9" y="13.026"/><use xlink:href="#10" y="15.197"/><use xlink:href="#11" y="17.368"/><use xlink:href="#19" y="19.539"/><use xlink:href="#20" y="21.71"/><use xlink:href="#14" y="23.881"/><use xlink:href="#15" y="28.223"/><use xlink:href="#16" y="30.394"/><use xlink:href="#21" y="36.907"/><use xlink:href="#8" y="41.249"/><use xlink:href="#9" y="43.42"/><use xlink:href="#10" y="45.591"/><use xlink:href="#11" y="47.762"/><use xlink:href="#22" y="49.933"/><use xlink:href="#23" y="52.104"/><use xlink:href="#14" y="54.275"/></svg><svg x="6565"><use xlink:href="#a"/><use xlink:href="#b" x="-.004" y="56.421"/><use xlink:href="#18" y="4.342"/><use xlink:href="#8" y="8.684"/><use xlink:href="#9" y="10.855"/><use xlink:href="#10" y="13.026"/><use xlink:href="#11" y="15.197"/><use xlink:href="#19" y="17.368"/><use xlink:href="#20" y="19.539"/><use xlink:href="#14" y="21.71"/><use xlink:href="#15" y="26.052"/><use xlink:href="#16" y="28.223"/><use xlink:href="#21" y="34.736"/><use xlink:href="#8" y="39.078"/><use xlink:href="#9" y="41.249"/><use xlink:href="#10" y="43.42"/><use xlink:href="#11" y="45.591"/><use xlink:href="#22" y="47.762"/><use xlink:href="#23" y="49.933"/><use xlink:href="#14" y="52.104"/></svg><svg x="6666"><use xlink:href="#a"/><use xlink:href="#b" x="-.004" y="56.421"/><use xlink:href="#18" y="2.171"/><use xlink:href="#8" y="6.513"/><use xlink:href="#9" y="8.684"/><use xlink:href="#10" y="10.855"/><use xlink:href="#11" y="13.026"/><use xlink:href="#19" y="15.197"/><use xlink:href="#20" y="17.368"/><use xlink:href="#14" y="19.539"/><use xlink:href="#15" y="23.881"/><use xlink:href="#16" y="26.052"/><use xlink:href="#21" y="32.565"/><use xlink:href="#8" y="36.907"/><use xlink:href="#9" y="39.078"/><use xlink:href="#10" y="41.249"/><use xlink:href="#11" y="43.42"/><use xlink:href="#22" y="45.591"/><use xlink:href="#23" y="47.762"/><use xlink:href="#14" y="49.933"/><use xlink:href="#15" y="54.275"/></svg><svg x="6767"><use xlink:href="#a"/><use xlink:href="#b" x="2.996" y="56.421"/><use xlink:href="#18" y="2.171"/><use xlink:href="#8" y="6.513"/><use xlink:href="#9" y="8.684"/><use xlink:href="#10" y="10.855"/><use xlink:href="#11" y="13.026"/><use xlink:href="#19" y="15.197"/><use xlink:href="#20" y="17.368"/><use xlink:href="#14" y="19.539"/><use xlink:href="#15" y="23.881"/><use xlink:href="#16" y="26.052"/><use xlink:href="#21" y="32.565"/><use xlink:href="#8" y="36.907"/><use xlink:href="#9" y="39.078"/><use xlink:href="#10" y="41.249"/><use xlink:href="#11" y="43.42"/><use xlink:href="#22" y="45.591"/><use xlink:href="#23" y="47.762"/><use xlink:href="#14" y="49.933"/><use xlink:href="#15" y="54.275"/><use xlink:href="#16" y="56.446"/></svg><svg x="6868"><use xlink:href="#a"/><use xlink:href="#b" x="3.996" y="56.421"/><use xlink:href="#18" y="2.171"/><use xlink:href="#8" y="6.513"/><use xlink:href="#9" y="8.684"/><use xlink:href="#10" y="10.855"/><use xlink:href="#11" y="13.026"/><use xlink:href="#19" y="15.197"/><use xlink:href="#20" y="17.368"/><use xlink:href="#14" y="19.539"/><use xlink:href="#15" y="23.881"/><use xlink:href="#16" y="26.052"/><use xlink:href="#21" y="32.565"/><use xlink:href="#8" y="36.907"/><use xlink:href="#9" y="39.078"/><use xlink:href="#10" y="41.249"/><use xlink:href="#11" y="43.42"/><use xlink:href="#22" y="45.591"/><use xlink:href="#23" y="47.762"/><use xlink:href="#14" y="49.933"/><use xlink:href="#15" y="54.275"/><text x="1.002" y="58.116" class="f">&gt;</text><text x="3.006" y="58.116" class="f">n</text></svg><svg x="6969"><use xlink:href="#a"/><use xlink:href="#b" x="4.996" y="56.421"/><use xlink:href="#18" y="2.171"/><use xlink:href="#8" y="6.513"/><use xlink:href="#9" y="8.684"/><use xlink:href="#10" y="10.855"/><use xlink:href="#11" y="13.026"/><use xlink:href="#19" y="15.197"/><use xlink:href="#20" y="17.368"/><use xlink:href="#14" y="19.539"/><use xlink:href="#15" y="23.881"/><use xlink:href="#16" y="26.052"/><use xlink:href="#21" y="32.565"/><use xlink:href="#8" y="36.907"/><use xlink:href="#9" y="39.078"/><use xlink:href="#10" y="41.249"/><use xlink:href="#11" y="43.42"/><use xlink:href="#22" y="45.591"/><use xlink:href="#23" y="47.762"/><use xlink:href="#14" y="49.933"/><use xlink:href="#15" y="54.275"/><use xlink:href="#24" y="56.446"/></svg><svg x="7070"><use xlink:href="#a"/><use xlink:href="#b" x="-.004" y="56.421"/><use xlink:href="#18"/><use xlink:href="#8" y="4.342"/><use xlink:href="#9" y="6.513"/><use xlink:href="#10" y="8.684"/><use xlink:href="#11" y="10.855"/><use xlink:href="#19" y="13.026"/><use xlink:href="#20" y="15.197"/><use xlink:href="#14" y="17.368"/><use xlink:href="#15" y="21.71"/><use xlink:href="#16" y="23.881"/><use xlink:href="#21" y="30.394"/><use xlink:href="#8" y="34.736"/><use xlink:href="#9" y="36.907"/><use xlink:href="#10" y="39.078"/><use xlink:href="#11" y="41.249"/><use xlink:href="#22" y="43.42"/><use xlink:href="#23" y="45.591"/><use xlink:href="#14" y="47.762"/><use xlink:href="#15" y="52.104"/><use xlink:href="#24" y="54.275"/></svg><svg x="7171"><use xlink:href="#a"/><use xlink:href="#b" x="-.004" y="56.421"/><use xlink:href="#8" y="2.171"/><use xlink:href="#9" y="4.342"/><use xlink:href="#10" y="6.513"/><use xlink:href="#11" y="8.684"/><use xlink:href="#19" y="10.855"/><use xlink:href="#20" y="13.026"/><use xlink:href="#14" y="15.197"/><use xlink:href="#15" y="19.539"/><use xlink:href="#16" y="21.71"/><use xlink:href="#21" y="28.223"/><use xlink:href="#8" y="32.565"/><use xlink:href="#9" y="34.736"/><use xlink:href="#10" y="36.907"/><use xlink:href="#11" y="39.078"/><use xlink:href="#22" y="41.249"/><use xlink:href="#23" y="43.42"/><use xlink:href="#14" y="45.591"/><use xlink:href="#15" y="49.933"/><use xlink:href="#24" y="52.104"/></svg><svg x="7272"><use xlink:href="#a"/><use xlink:href="#b" x="-.004" y="56.421"/><use xlink:href="#8"/><use xlink:href="#9" y="2.171"/><use xlink:href="#10" y="4.342"/><use xlink:href="#11" y="6.513"/><use xlink:href="#19" y="8.684"/><use xlink:href="#20" y="10.855"/><use xlink:href="#14" y="13.026"/><use xlink:href="#15" y="17.368"/><use xlink:href="#16" y="19.539"/><use xlink:href="#21" y="26.052"/><use xlink:href="#8" y="30.394"/><use xlink:href="#9" y="32.565"/><use xlink:href="#10" y="34.736"/><use xlink:href="#11" y="36.907"/><use xlink:href="#22" y="39.078"/><use xlink:href="#23" y="41.249"/><use xlink:href="#14" y="43.42"/><use xlink:href="#15" y="47.762"/><use xlink:href="#24" y="49.933"/><use xlink:href="#25" y="54.275"/></svg><svg x="7373"><use xlink:href="#a"/><use xlink:href="#b" x="-.004" y="56.421"/><use xlink:href="#9"/><use xlink:href="#10" y="2.171"/><use xlink:href="#11" y="4.342"/><use xlink:href="#19" y="6.513"/><use xlink:href="#20" y="8.684"/><use xlink:href="#14" y="10.855"/><use xlink:href="#15" y="15.197"/><use xlink:href="#16" y="17.368"/><use xlink:href="#21" y="23.881"/><use xlink:href="#8" y="28.223"/><use xlink:href="#9" y="30.394"/><use xlink:href="#10" y="32.565"/><use xlink:href="#11" y="34.736"/><use xlink:href="#22" y="36.907"/><use xlink:href="#23" y="39.078"/><use xlink:href="#14" y="41.249"/><use xlink:href="#15" y="45.591"/><use xlink:href="#24" y="47.762"/><use xlink:href="#25" y="52.104"/></svg><svg x="7474"><use xlink:href="#a"/><use xlink:href="#b" x="1.996" y="56.421"/><use xlink:href="#9"/><use xlink:href="#10" y="2.171"/><use xlink:href="#11" y="4.342"/><use xlink:href="#19" y="6.513"/><use xlink:href="#20" y="8.684"/><use xlink:href="#14" y="10.855"/><use xlink:href="#15" y="15.197"/><use xlink:href="#16" y="17.368"/><use xlink:href="#21" y="23.881"/><use xlink:href="#8" y="28.223"/><use xlink:href="#9" y="30.394"/><use xlink:href="#10" y="32.565"/><use xlink:href="#11" y="34.736"/><use xlink:href="#22" y="36.907"/><use xlink:href="#23" y="39.078"/><use xlink:href="#14" y="41.249"/><use xlink:href="#15" y="45.591"/><use xlink:href="#24" y="47.762"/><use xlink:href="#25" y="52.104"/><use xlink:href="#1" y="56.446"/></svg><svg x="7575"><use xlink:href="#a"/><use xlink:href="#b" x="-.004" y="56.421"/><use xlink:href="#10"/><use xlink:href="#11" y="2.171"/><use xlink:href="#19" y="4.342"/><use xlink:href="#20" y="6.513"/><use xlink:href="#14" y="8.684"/><use xlink:href="#15" y="13.026"/><use xlink:href="#16" y="15.197"/><use xlink:href="#21" y="21.71"/><use xlink:href="#8" y="26.052"/><use xlink:href="#9" y="28.223"/><use xlink:href="#10" y="30.394"/><use xlink:href="#11" y="32.565"/><use xlink:href="#22" y="34.736"/><use xlink:href="#23" y="36.907"/><use xlink:href="#14" y="39.078"/><use xlink:href="#15" y="43.42"/><use xlink:href="#24" y="45.591"/><use xlink:href="#25" y="49.933"/><text y="55.945" class="f">$</text><text x="2.004" y="55.945" class="f">exit</text></svg></svg></g></g></svg></svg>